<?xml version="1.0" encoding="utf-8"?>
<!-- Generator: Adobe Illustrator 24.0.0, SVG Export Plug-In . SVG Version: 6.00 Build 0)  -->
<svg version="1.1" id="Layer_1" xmlns="http://www.w3.org/2000/svg" xmlns:xlink="http://www.w3.org/1999/xlink" x="0px" y="0px"
	 viewBox="0 0 100 100" style="enable-background:new 0 0 100 100;" xml:space="preserve">
<style type="text/css">
	.st0{fill:#FFFFFF;}
	
		.st1{fill:none;stroke:#000000;stroke-width:4;stroke-linecap:round;stroke-miterlimit:10;stroke-dasharray:23.2651,9.6938,0,0,0,0;}
	.st2{fill:url(#SVGID_1_);}
	.st3{fill:url(#SVGID_2_);}
</style>
<g>
	<g>
		<path class="st0" d="M50.01,99.5c-10.09-0.01-19.8-3.05-28.08-8.8l-0.34-0.24l-6.53,6.53c-1.47,1.47-3.41,2.32-5.51,2.43
			c0.66-1.04,1.02-2.23,1.02-3.45c0-3.58-2.91-6.5-6.49-6.51c-1.22,0-2.41,0.35-3.45,1.01c0.12-2.09,0.98-4.06,2.43-5.51l6.53-6.52
			l-0.24-0.34c-5.72-8.3-8.74-18.03-8.73-28.13C0.64,22.68,22.82,0.5,50.06,0.5C77.37,0.53,99.53,22.76,99.5,50.05
			C99.47,77.32,77.29,99.5,50.06,99.5C50.06,99.5,50.01,99.5,50.01,99.5z"/>
		<path d="M50.06,1l0.05,0C77.09,1.03,99.03,23.03,99,50.05C98.97,77.04,77.02,99,50.06,99l-0.05,0c-9.99-0.01-19.6-3.02-27.8-8.71
			l-0.69-0.48l-0.59,0.59l-6.24,6.23c-1.16,1.16-2.64,1.91-4.27,2.18c0.41-0.9,0.63-1.87,0.63-2.85c0-3.86-3.13-7-6.99-7.01
			c-0.98,0-1.95,0.21-2.84,0.62c0.28-1.62,1.03-3.11,2.18-4.27l6.24-6.23l0.59-0.59L9.76,77.8C4.1,69.58,1.11,59.95,1.12,49.95
			C1.14,22.96,23.1,1,50.06,1 M50.06,0C22.5,0,0.14,22.35,0.12,49.95C0.11,60.5,3.37,70.29,8.94,78.37L2.7,84.6
			c-1.88,1.88-2.72,4.39-2.58,6.87c1.06-0.93,2.43-1.51,3.94-1.51c0,0,0,0,0.01,0c3.31,0,5.99,2.69,5.99,6.01
			c0,1.52-0.59,2.89-1.52,3.95c0.18,0.01,0.36,0.02,0.53,0.02c2.3,0,4.59-0.84,6.33-2.58l6.24-6.23c8.05,5.59,17.82,8.88,28.37,8.89
			c0.02,0,0.04,0,0.05,0c27.56,0,49.91-22.35,49.94-49.95C100.03,22.44,77.69,0.03,50.11,0C50.09,0,50.07,0,50.06,0L50.06,0z"/>
	</g>
	<g>
		<ellipse transform="matrix(1 -2.631339e-03 2.631339e-03 1 -0.1314 0.1319)" class="st0" cx="50.06" cy="50" rx="41.95" ry="42"/>
		<ellipse transform="matrix(1 -2.668468e-03 2.668468e-03 1 -0.1332 0.1338)" class="st1" cx="50.06" cy="50" rx="41.95" ry="42"/>
	</g>
	
		<radialGradient id="SVGID_1_" cx="50.2648" cy="-66.75" r="9" gradientTransform="matrix(1.9977 -5.256566e-03 5.262676e-03 2 -50.0047 182.7635)" gradientUnits="userSpaceOnUse">
		<stop  offset="0" style="stop-color:#00EA32"/>
		<stop  offset="0.1666" style="stop-color:#01E530"/>
		<stop  offset="0.3651" style="stop-color:#03D629"/>
		<stop  offset="0.5799" style="stop-color:#06BE1F"/>
		<stop  offset="0.8047" style="stop-color:#0A9D10"/>
		<stop  offset="1" style="stop-color:#0F7A00"/>
	</radialGradient>
	<path class="st2" d="M68.04,48.95c0.03,9.94-8,18.02-17.93,18.05c-9.93,0.03-18-8.01-18.03-17.95c-0.03-9.94,8-18.02,17.93-18.05
		C59.94,30.97,68.01,39.01,68.04,48.95z"/>
</g>
</svg>
